<svg width="188" height="188" viewBox="0 0 188 188" fill="none" xmlns="http://www.w3.org/2000/svg">
<path d="M188 94C188 95.5913 187.368 97.1174 186.243 98.2426C185.117 99.3679 183.591 100 182 100H100V182C100 183.591 99.3679 185.117 98.2426 186.243C97.1174 187.368 95.5913 188 94 188C92.4087 188 90.8826 187.368 89.7574 186.243C88.6321 185.117 88 183.591 88 182V100H6C4.4087 100 2.88258 99.3679 1.75736 98.2426C0.63214 97.1174 0 95.5913 0 94C0 92.4087 0.63214 90.8826 1.75736 89.7574C2.88258 88.6321 4.4087 88 6 88H88V6C88 4.4087 88.6321 2.88258 89.7574 1.75736C90.8826 0.63214 92.4087 0 94 0C95.5913 0 97.1174 0.63214 98.2426 1.75736C99.3679 2.88258 100 4.4087 100 6V88H182C183.591 88 185.117 88.6321 186.243 89.7574C187.368 90.8826 188 92.4087 188 94Z" fill="#fill#"/>
</svg>
