<svg width="20" height="18" viewBox="0 0 20 18" fill="none" xmlns="http://www.w3.org/2000/svg">
<path fill-rule="evenodd" clip-rule="evenodd" d="M19.5547 16.5C19.5547 16.9142 19.2189 17.25 18.8047 17.25H0.804688C0.390474 17.25 0.0546875 16.9142 0.0546875 16.5V1.5C0.0546875 1.08579 0.390474 0.75 0.804688 0.75C1.2189 0.75 1.55469 1.08579 1.55469 1.5V10.3472L6.31063 6.1875C6.57735 5.95401 6.97112 5.93915 7.25469 6.15187L12.7681 10.2872L18.3106 5.4375C18.5086 5.24149 18.799 5.1714 19.0646 5.2555C19.3303 5.33959 19.5274 5.56402 19.5765 5.83828C19.6256 6.11254 19.5187 6.39143 19.2987 6.5625L13.2987 11.8125C13.032 12.046 12.6383 12.0608 12.3547 11.8481L6.84125 7.71469L1.55469 12.3403V15.75H18.8047C19.2189 15.75 19.5547 16.0858 19.5547 16.5Z" fill="#fill#"/>
</svg>
