<svg width="20" height="16" viewBox="0 0 20 16" fill="none" xmlns="http://www.w3.org/2000/svg">
<path d="M7.175 12H1C0.716667 12 0.479333 11.904 0.288 11.712C0.0966668 11.52 0.000666667 11.2827 0 11C0 10.7167 0.0960001 10.4793 0.288 10.288C0.48 10.0967 0.717333 10.0007 1 10H7.175L5.3 8.12502C5.11667 7.94168 5.025 7.71268 5.025 7.43801C5.025 7.16335 5.11667 6.92568 5.3 6.72502C5.5 6.52502 5.73767 6.42502 6.013 6.42502C6.28833 6.42502 6.52567 6.52502 6.725 6.72502L10.3 10.3C10.4 10.4 10.471 10.5083 10.513 10.625C10.555 10.7417 10.5757 10.8667 10.575 11C10.575 11.1333 10.5543 11.2583 10.513 11.375C10.4717 11.4917 10.4007 11.6 10.3 11.7L6.7 15.3C6.5 15.5 6.26667 15.596 6 15.588C5.73333 15.58 5.5 15.4757 5.3 15.275C5.11667 15.075 5.021 14.8417 5.013 14.575C5.005 14.3083 5.10067 14.075 5.3 13.875L7.175 12ZM12.825 6.00002L14.7 7.87502C14.8833 8.05835 14.975 8.28768 14.975 8.56301C14.975 8.83835 14.8833 9.07568 14.7 9.27501C14.5 9.47501 14.2627 9.57502 13.988 9.57502C13.7133 9.57502 13.4757 9.47501 13.275 9.27501L9.7 5.70002C9.6 5.60002 9.52933 5.49168 9.488 5.37502C9.44667 5.25835 9.42567 5.13335 9.425 5.00002C9.425 4.86668 9.446 4.74168 9.488 4.62502C9.53 4.50835 9.60067 4.40002 9.7 4.30002L13.3 0.700015C13.5 0.500015 13.7333 0.404349 14 0.413016C14.2667 0.421682 14.5 0.525682 14.7 0.725015C14.8833 0.925015 14.9793 1.15835 14.988 1.42502C14.9967 1.69168 14.9007 1.92502 14.7 2.12502L12.825 4.00002H19C19.2833 4.00002 19.521 4.09602 19.713 4.28802C19.905 4.48002 20.0007 4.71735 20 5.00002C20 5.28335 19.904 5.52102 19.712 5.71302C19.52 5.90502 19.2827 6.00068 19 6.00002H12.825Z" fill="#fill#"/>
</svg>
