<svg width="14" height="22" viewBox="0 0 14 22" fill="none" xmlns="http://www.w3.org/2000/svg">
<path fill-rule="evenodd" clip-rule="evenodd" d="M9.25781 10.25H7.75781V4.25H8.50781C10.1647 4.25 11.5078 5.59315 11.5078 7.25C11.5078 7.66421 11.8436 8 12.2578 8C12.672 8 13.0078 7.66421 13.0078 7.25C13.0052 4.76579 10.992 2.75258 8.50781 2.75H7.75781V1.25C7.75781 0.835786 7.42203 0.5 7.00781 0.5C6.5936 0.5 6.25781 0.835786 6.25781 1.25V2.75H5.50781C3.02253 2.75 1.00781 4.76472 1.00781 7.25C1.00781 9.73528 3.02253 11.75 5.50781 11.75H6.25781V17.75H4.75781C3.10096 17.75 1.75781 16.4069 1.75781 14.75C1.75781 14.3358 1.42203 14 1.00781 14C0.593599 14 0.257812 14.3358 0.257812 14.75C0.260396 17.2342 2.2736 19.2474 4.75781 19.25H6.25781V20.75C6.25781 21.1642 6.5936 21.5 7.00781 21.5C7.42203 21.5 7.75781 21.1642 7.75781 20.75V19.25H9.25781C11.7431 19.25 13.7578 17.2353 13.7578 14.75C13.7578 12.2647 11.7431 10.25 9.25781 10.25ZM5.50781 10.25C3.85096 10.25 2.50781 8.90685 2.50781 7.25C2.50781 5.59315 3.85096 4.25 5.50781 4.25H6.25781V10.25H5.50781ZM9.25781 17.75H7.75781V11.75H9.25781C10.9147 11.75 12.2578 13.0931 12.2578 14.75C12.2578 16.4069 10.9147 17.75 9.25781 17.75Z" fill="#fill#"/>
</svg>
