<svg width="24" height="16" viewBox="0 0 24 16" fill="none" xmlns="http://www.w3.org/2000/svg">
<path fill-rule="evenodd" clip-rule="evenodd" d="M23.3962 7.69625C23.3634 7.62219 22.5694 5.86062 20.8041 4.09531C18.4519 1.74312 15.4809 0.5 12.2109 0.5C8.94094 0.5 5.97 1.74312 3.61781 4.09531C1.8525 5.86062 1.05469 7.625 1.02562 7.69625C0.939387 7.89022 0.939387 8.11165 1.02562 8.30562C1.05844 8.37969 1.8525 10.1403 3.61781 11.9056C5.97 14.2569 8.94094 15.5 12.2109 15.5C15.4809 15.5 18.4519 14.2569 20.8041 11.9056C22.5694 10.1403 23.3634 8.37969 23.3962 8.30562C23.4825 8.11165 23.4825 7.89022 23.3962 7.69625ZM12.2109 14C9.32531 14 6.80438 12.9509 4.7175 10.8828C3.86123 10.0313 3.13274 9.06027 2.55469 8C3.13258 6.93963 3.86109 5.9686 4.7175 5.11719C6.80438 3.04906 9.32531 2 12.2109 2C15.0966 2 17.6175 3.04906 19.7044 5.11719C20.5623 5.9684 21.2924 6.93942 21.8719 8C21.1959 9.26188 18.2512 14 12.2109 14ZM12.2109 3.5C9.72566 3.5 7.71094 5.51472 7.71094 8C7.71094 10.4853 9.72566 12.5 12.2109 12.5C14.6962 12.5 16.7109 10.4853 16.7109 8C16.7084 5.51579 14.6951 3.50258 12.2109 3.5ZM12.2109 11C10.5541 11 9.21094 9.65685 9.21094 8C9.21094 6.34315 10.5541 5 12.2109 5C13.8678 5 15.2109 6.34315 15.2109 8C15.2109 9.65685 13.8678 11 12.2109 11Z" fill="#fill#"/>
</svg>
