<svg width="19" height="19" viewBox="0 0 19 19" fill="none" xmlns="http://www.w3.org/2000/svg">
<path fill-rule="evenodd" clip-rule="evenodd" d="M18.6016 8.83281V17.5C18.6016 18.3284 17.93 19 17.1016 19H13.3516C12.5231 19 11.8516 18.3284 11.8516 17.5V13.75C11.8516 13.3358 11.5158 13 11.1016 13H8.10156C7.68735 13 7.35156 13.3358 7.35156 13.75V17.5C7.35156 18.3284 6.67999 19 5.85156 19H2.10156C1.27314 19 0.601562 18.3284 0.601562 17.5V8.83281C0.601499 8.41309 0.777292 8.01254 1.08625 7.72844L8.58625 0.652188L8.59656 0.641875C9.16876 0.121501 10.0428 0.121501 10.615 0.641875C10.6182 0.645543 10.6216 0.648989 10.6253 0.652188L18.1253 7.72844C18.4312 8.01402 18.6038 8.41437 18.6016 8.83281Z" fill="#fill#"/>
</svg>
