<svg width="41" height="40" viewBox="0 0 41 40" fill="none" xmlns="http://www.w3.org/2000/svg">
<path d="M36.8 21.32C36.4794 20.955 36.3025 20.4858 36.3025 20C36.3025 19.5142 36.4794 19.045 36.8 18.68L39.36 15.8C39.6421 15.4853 39.8173 15.0894 39.8604 14.669C39.9035 14.2486 39.8123 13.8254 39.6 13.46L35.6 6.54C35.3898 6.17504 35.0698 5.88575 34.6855 5.71337C34.3012 5.54099 33.8724 5.49432 33.46 5.58L29.7 6.34C29.2216 6.43886 28.7235 6.35918 28.2998 6.116C27.8761 5.87282 27.556 5.48297 27.4 5.02L26.18 1.36C26.0458 0.962758 25.7902 0.61773 25.4493 0.373684C25.1083 0.129638 24.6993 -0.00108229 24.28 3.70201e-08H16.28C15.8439 -0.022764 15.4123 0.0978528 15.0511 0.343428C14.69 0.589004 14.4192 0.946038 14.28 1.36L13.16 5.02C13.004 5.48297 12.6839 5.87282 12.2602 6.116C11.8365 6.35918 11.3384 6.43886 10.86 6.34L7 5.58C6.6091 5.52476 6.2106 5.58645 5.85469 5.75728C5.49879 5.92811 5.2014 6.20046 5 6.54L1 13.46C0.78232 13.8213 0.684444 14.2422 0.720365 14.6624C0.756286 15.0827 0.924165 15.4809 1.2 15.8L3.74 18.68C4.06064 19.045 4.23747 19.5142 4.23747 20C4.23747 20.4858 4.06064 20.955 3.74 21.32L1.2 24.2C0.924165 24.5191 0.756286 24.9173 0.720365 25.3376C0.684444 25.7578 0.78232 26.1787 1 26.54L5 33.46C5.2102 33.825 5.53024 34.1142 5.9145 34.2866C6.29877 34.459 6.72765 34.5057 7.14 34.42L10.9 33.66C11.3784 33.5611 11.8765 33.6408 12.3002 33.884C12.7239 34.1272 13.044 34.517 13.2 34.98L14.42 38.64C14.5592 39.054 14.83 39.411 15.1911 39.6566C15.5523 39.9021 15.9839 40.0228 16.42 40H24.42C24.8393 40.0011 25.2483 39.8704 25.5893 39.6263C25.9302 39.3823 26.1858 39.0372 26.32 38.64L27.54 34.98C27.696 34.517 28.0161 34.1272 28.4398 33.884C28.8635 33.6408 29.3616 33.5611 29.84 33.66L33.6 34.42C34.0124 34.5057 34.4412 34.459 34.8255 34.2866C35.2098 34.1142 35.5298 33.825 35.74 33.46L39.74 26.54C39.9523 26.1746 40.0435 25.7514 40.0004 25.331C39.9573 24.9106 39.7821 24.5147 39.5 24.2L36.8 21.32ZM33.82 24L35.42 25.8L32.86 30.24L30.5 29.76C29.0596 29.4656 27.5611 29.7102 26.2892 30.4476C25.0172 31.185 24.0603 32.3637 23.6 33.76L22.84 36H17.72L17 33.72C16.5397 32.3237 15.5828 31.145 14.3108 30.4076C13.0389 29.6702 11.5404 29.4256 10.1 29.72L7.74 30.2L5.14 25.78L6.74 23.98C7.72391 22.88 8.26786 21.4559 8.26786 19.98C8.26786 18.5041 7.72391 17.08 6.74 15.98L5.14 14.18L7.7 9.78L10.06 10.26C11.5004 10.5544 12.9989 10.3098 14.2708 9.5724C15.5428 8.83503 16.4997 7.65632 16.96 6.26L17.72 4H22.84L23.6 6.28C24.0603 7.67632 25.0172 8.85503 26.2892 9.5924C27.5611 10.3298 29.0596 10.5744 30.5 10.28L32.86 9.8L35.42 14.24L33.82 16.04C32.8471 17.1375 32.3099 18.5534 32.3099 20.02C32.3099 21.4866 32.8471 22.9025 33.82 24ZM20.28 12C18.6977 12 17.151 12.4692 15.8354 13.3482C14.5198 14.2273 13.4945 15.4767 12.889 16.9385C12.2835 18.4003 12.125 20.0089 12.4337 21.5607C12.7424 23.1126 13.5043 24.538 14.6231 25.6569C15.742 26.7757 17.1674 27.5376 18.7193 27.8463C20.2711 28.155 21.8797 27.9965 23.3415 27.391C24.8033 26.7855 26.0527 25.7602 26.9318 24.4446C27.8108 23.129 28.28 21.5823 28.28 20C28.28 17.8783 27.4371 15.8434 25.9369 14.3431C24.4366 12.8429 22.4017 12 20.28 12ZM20.28 24C19.4889 24 18.7155 23.7654 18.0577 23.3259C17.3999 22.8864 16.8872 22.2616 16.5845 21.5307C16.2817 20.7998 16.2025 19.9956 16.3569 19.2196C16.5112 18.4437 16.8922 17.731 17.4516 17.1716C18.011 16.6122 18.7237 16.2312 19.4996 16.0769C20.2756 15.9225 21.0798 16.0017 21.8107 16.3045C22.5416 16.6072 23.1664 17.1199 23.6059 17.7777C24.0454 18.4355 24.28 19.2089 24.28 20C24.28 21.0609 23.8586 22.0783 23.1084 22.8284C22.3583 23.5786 21.3409 24 20.28 24Z" fill="#fill#"/>
</svg>
